<svg enable-background="new 0 0 100 100" height="100" viewBox="0 0 100 100" width="100" xmlns="http://www.w3.org/2000/svg"><circle cx="50" cy="50" fill="#666" r="48"/><path d="m74.8 27.1h-49.6c-3.2 0-5.8 2.5-5.8 5.8v34.4c0 3.2 2.5 5.8 5.8 5.8h49.6c3.2 0 5.8-2.5 5.8-5.8v-34.5c0-3.1-2.6-5.7-5.8-5.7zm0 5.7v4.9c-2.6 2.1-6.9 5.6-16.1 12.7-2 1.6-6 5.5-8.7 5.5s-6.7-3.7-8.7-5.4c-9.1-7.1-13.4-10.6-16.1-12.7v-4.9zm-49.6 34.4v-22.2c2.7 2.1 6.6 5.3 12.5 9.9 2.6 2.1 7.1 6.5 12.3 6.5s9.7-4.5 12.3-6.5c5.9-4.6 9.8-7.7 12.5-9.9v22.2z" fill="#fff"/></svg>