<svg enable-background="new 0 0 100 100" height="100" viewBox="0 0 100 100" width="100" xmlns="http://www.w3.org/2000/svg"><circle cx="50" cy="50" fill="#666" r="48"/><path d="m50 13.6c-20.1 0-36.4 16.3-36.4 36.4s16.3 36.4 36.4 36.4 36.4-16.3 36.4-36.4-16.3-36.4-36.4-36.4zm21.6 58c-2.8 2.8-6.1 5-9.7 6.6-.9.4-1.9.7-2.8 1v-5.5c0-2.9-1-5-3-6.3 1.2-.1 2.4-.3 3.4-.5s2.1-.5 3.3-.9c1.1-.4 2.2-.9 3.1-1.4.9-.6 1.8-1.3 2.6-2.2s1.5-1.9 2.1-3 1-2.5 1.4-4.1c.3-1.6.5-3.3.5-5.2 0-3.7-1.2-6.8-3.6-9.4 1.1-2.8 1-5.9-.4-9.3l-.9-.1c-.6-.1-1.7.2-3.3.8s-3.4 1.6-5.4 2.9c-2.8-.8-5.7-1.2-8.8-1.2s-6 .4-8.7 1.2c-1.3-.9-2.4-1.6-3.6-2.1-1.1-.6-2-.9-2.7-1.1s-1.3-.3-1.9-.4c-.6 0-1-.1-1.1 0-.2 0-.3 0-.4.1-1.3 3.4-1.4 6.5-.4 9.3-2.4 2.6-3.6 5.7-3.6 9.4 0 1.9.2 3.6.5 5.2s.8 2.9 1.4 4.1c.6 1.1 1.3 2.1 2.1 3s1.7 1.6 2.6 2.2 1.9 1 3.1 1.4c1.1.4 2.2.7 3.3.9 1 .2 2.2.4 3.4.5-1.9 1.3-2.9 3.4-2.9 6.3v5.6c-1.1-.3-2.1-.7-3.2-1.1-3.6-1.5-6.9-3.7-9.7-6.6s-5-6.1-6.6-9.7c-1.6-3.8-2.4-7.8-2.4-11.9s.8-8.1 2.4-11.9c1.5-3.6 3.7-6.9 6.6-9.7s6.1-5 9.7-6.6c3.8-1.6 7.8-2.4 11.9-2.4s8.1.8 11.9 2.4c3.6 1.5 6.9 3.7 9.7 6.6s5 6.1 6.6 9.7c1.6 3.8 2.4 7.8 2.4 11.9s-.8 8.1-2.4 11.9c-1.5 3.5-3.7 6.8-6.5 9.6z" fill="#f7f7f7"/></svg>