<svg enable-background="new 0 0 100 100" height="100" viewBox="0 0 100 100" width="100" xmlns="http://www.w3.org/2000/svg"><circle cx="50" cy="50" fill="#666" r="48"/><path d="m66.3 25.5h-32.6c-4.5 0-8.2 3.7-8.2 8.2v32.5c0 4.5 3.7 8.2 8.2 8.2h32.5c4.5 0 8.2-3.7 8.2-8.2v-32.5c.1-4.5-3.6-8.2-8.1-8.2zm-22.4 39.8h-6.1v-21.4h6.1zm-3.1-24.5c-1.7 0-3.1-1.4-3.1-3.1s1.4-3.1 3.1-3.1 3.1 1.4 3.1 3.1-1.4 3.1-3.1 3.1zm24.5 24.5h-6.1v-12.2c0-1.7-1.4-3.1-3.1-3.1s-3.1 1.4-3.1 3.1v12.2h-6.1v-21.4h6.1v3.8c1.3-1.7 3.2-3.8 5.4-3.8 3.8 0 6.9 3.4 6.9 7.7z" fill="#f7f7f7"/></svg>