<svg enable-background="new 0 0 100 100" height="100" viewBox="0 0 100 100" width="100" xmlns="http://www.w3.org/2000/svg"><circle cx="50" cy="50" fill="#666" r="48"/><path d="m74.5 34.7c-1.8.8-3.7 1.3-5.8 1.6 2.1-1.3 3.7-3.2 4.4-5.6-1.9 1.2-4.1 2-6.4 2.5-1.8-2-4.4-3.2-7.3-3.2-5.6 0-10.1 4.5-10.1 10.1 0 .8.1 1.6.3 2.3-8.4-.4-15.8-4.4-20.7-10.6-.9 1.5-1.4 3.2-1.4 5.1 0 3.5 1.8 6.6 4.5 8.4-1.6-.1-3.2-.5-4.6-1.3v.1c0 4.9 3.5 9 8.1 9.9-.8.2-1.7.4-2.6.4-.6 0-1.3-.1-1.9-.2 1.3 4 5 6.9 9.4 7-3.4 2.7-7.8 4.3-12.5 4.3-.8 0-1.6 0-2.4-.1 4.4 2.9 9.7 4.5 15.4 4.5 18.5 0 28.6-15.4 28.6-28.8 0-.4 0-.9 0-1.3 1.9-1.3 3.7-3.1 5-5.1z" fill="#f7f7f7"/></svg>